<svg width="91" height="91" viewBox="0 0 91 91" fill="none" xmlns="http://www.w3.org/2000/svg">
<path d="M76.7813 32.2709C80.1331 33.3477 82.4688 36.5479 82.4688 40.222V56.4731C82.4688 60.7804 79.2572 64.4356 74.9613 64.7882C73.6721 64.8906 72.3829 64.9854 71.0938 65.0612V76.7813L59.7188 65.4063C54.5848 65.4063 49.504 65.1977 44.4762 64.7882C43.3817 64.6997 42.317 64.3874 41.3481 63.8706M76.7813 32.2709C76.1954 32.0823 75.5898 31.9614 74.9764 31.9107C64.8221 31.0677 54.6154 31.0677 44.4611 31.9107C40.1727 32.2671 36.9688 35.9185 36.9688 40.222V56.4731C36.9688 59.6467 38.7129 62.4639 41.3481 63.8706M76.7813 32.2709V25.1653C76.7813 19.019 72.4133 13.6917 66.3163 12.8993C58.4706 11.8823 50.5675 11.3732 42.6563 11.375C34.6369 11.375 26.7388 11.8945 18.9963 12.8993C12.8993 13.6917 8.53125 19.019 8.53125 25.1653V48.7722C8.53125 54.9185 12.8993 60.2458 18.9963 61.0383C21.184 61.3226 23.3832 61.5691 25.5938 61.7738V79.625L41.3481 63.8706" stroke="white" stroke-width="3" stroke-linecap="round" stroke-linejoin="round"/>
</svg>
