<svg width="28" height="28" viewBox="0 0 28 28" fill="none" xmlns="http://www.w3.org/2000/svg">
<path d="M19.2676 3.06653H7.93425C4.80463 3.06653 2.26758 5.60358 2.26758 8.7332V20.0665C2.26758 23.1961 4.80463 25.7332 7.93425 25.7332H19.2676C22.3972 25.7332 24.9342 23.1961 24.9342 20.0665V8.7332C24.9342 5.60358 22.3972 3.06653 19.2676 3.06653Z" stroke="#0CF9DD" stroke-width="2" stroke-linecap="round" stroke-linejoin="round"/>
<path d="M18.1329 13.6858C18.2727 14.629 18.1116 15.5923 17.6725 16.4386C17.2333 17.285 16.5384 17.9714 15.6867 18.4001C14.835 18.8287 13.8698 18.978 12.9284 18.8265C11.9869 18.675 11.1173 18.2305 10.443 17.5563C9.76878 16.882 9.3243 16.0123 9.17281 15.0709C9.02133 14.1295 9.17055 13.1643 9.59924 12.3126C10.0279 11.4609 10.7143 10.766 11.5607 10.3268C12.407 9.88766 13.3703 9.72656 14.3135 9.86642C15.2757 10.0091 16.1664 10.4574 16.8541 11.1452C17.5419 11.8329 17.9902 12.7236 18.1329 13.6858Z" stroke="#0CF9DD" stroke-width="2" stroke-linecap="round" stroke-linejoin="round"/>
<path d="M19.834 8.1665H19.8453" stroke="#0CF9DD" stroke-width="2" stroke-linecap="round" stroke-linejoin="round"/>
</svg>
