<svg width="91" height="91" viewBox="0 0 91 91" fill="none" xmlns="http://www.w3.org/2000/svg">
<path d="M25.5938 11.375V19.9063M65.4063 11.375V19.9063M11.375 71.0938V28.4375C11.375 26.1749 12.2738 24.0049 13.8737 22.405C15.4737 20.8051 17.6436 19.9063 19.9063 19.9063H71.0938C73.3564 19.9063 75.5263 20.8051 77.1263 22.405C78.7262 24.0049 79.625 26.1749 79.625 28.4375V71.0938M11.375 71.0938C11.375 73.3564 12.2738 75.5263 13.8737 77.1263C15.4737 78.7262 17.6436 79.625 19.9063 79.625H71.0938C73.3564 79.625 75.5263 78.7262 77.1263 77.1263C78.7262 75.5263 79.625 73.3564 79.625 71.0938M11.375 71.0938V42.6563C11.375 40.3936 12.2738 38.2237 13.8737 36.6237C15.4737 35.0238 17.6436 34.125 19.9063 34.125H71.0938C73.3564 34.125 75.5263 35.0238 77.1263 36.6237C78.7262 38.2237 79.625 40.3936 79.625 42.6563V71.0938" stroke="white" stroke-width="3" stroke-linecap="round" stroke-linejoin="round"/>
</svg>
