<svg width="28" height="28" viewBox="0 0 28 28" fill="none" xmlns="http://www.w3.org/2000/svg">
<path d="M18.6672 9.86646C20.4707 9.86646 22.2003 10.5829 23.4755 11.8581C24.7508 13.1334 25.4672 14.863 25.4672 16.6665V24.5998H20.9339V16.6665C20.9339 16.0653 20.695 15.4888 20.27 15.0637C19.8449 14.6386 19.2683 14.3998 18.6672 14.3998C18.066 14.3998 17.4895 14.6386 17.0644 15.0637C16.6393 15.4888 16.4005 16.0653 16.4005 16.6665V24.5998H11.8672V16.6665C11.8672 14.863 12.5836 13.1334 13.8589 11.8581C15.1341 10.5829 16.8637 9.86646 18.6672 9.86646Z" stroke="#0CF9DD" stroke-width="2" stroke-linecap="round" stroke-linejoin="round"/>
<path d="M7.33411 10.9998H2.80078V24.5998H7.33411V10.9998Z" stroke="#0CF9DD" stroke-width="2" stroke-linecap="round" stroke-linejoin="round"/>
<path d="M5.06745 7.59986C6.31929 7.59986 7.33411 6.58504 7.33411 5.33319C7.33411 4.08135 6.31929 3.06653 5.06745 3.06653C3.8156 3.06653 2.80078 4.08135 2.80078 5.33319C2.80078 6.58504 3.8156 7.59986 5.06745 7.59986Z" stroke="#0CF9DD" stroke-width="2" stroke-linecap="round" stroke-linejoin="round"/>
</svg>
