<svg width="34" height="35" viewBox="0 0 34 35" fill="none" xmlns="http://www.w3.org/2000/svg">
<path d="M20.8208 7.12789C22.3172 7.41983 23.6923 8.15164 24.7703 9.22965C25.8484 10.3077 26.5802 11.6828 26.8721 13.1792M20.8208 1C23.9296 1.34536 26.8286 2.73752 29.0418 4.9479C31.2549 7.15828 32.6507 10.0555 33 13.1639M31.468 25.389V29.9849C31.4698 30.4116 31.3824 30.8339 31.2114 31.2248C31.0405 31.6157 30.7898 31.9666 30.4754 32.2551C30.161 32.5435 29.7899 32.7631 29.3857 32.8998C28.9815 33.0365 28.5533 33.0872 28.1283 33.0488C23.4142 32.5366 18.8859 30.9258 14.9074 28.3457C11.2059 25.9936 8.06768 22.8554 5.71559 19.1539C3.12652 15.1573 1.51529 10.607 1.01243 5.87167C0.974151 5.44803 1.0245 5.02106 1.16027 4.61794C1.29604 4.21482 1.51426 3.84439 1.80104 3.53024C2.08782 3.21608 2.43687 2.96507 2.82597 2.79321C3.21507 2.62134 3.63569 2.53237 4.06106 2.53197H8.65697C9.40045 2.52465 10.1212 2.78793 10.6849 3.27273C11.2487 3.75753 11.6169 4.43077 11.7209 5.16696C11.9149 6.63776 12.2746 8.08189 12.7933 9.4718C12.9994 10.0201 13.044 10.6161 12.9218 11.189C12.7997 11.7619 12.5158 12.2877 12.1039 12.7043L10.1583 14.6499C12.3392 18.4852 15.5148 21.6608 19.3501 23.8417L21.2957 21.8961C21.7123 21.4842 22.2381 21.2003 22.811 21.0782C23.3839 20.956 23.9799 21.0006 24.5282 21.2067C25.9181 21.7254 27.3622 22.0851 28.833 22.2791C29.5772 22.3841 30.2569 22.7589 30.7427 23.3323C31.2285 23.9057 31.4867 24.6377 31.468 25.389Z" stroke="#0CF9DD" stroke-width="2" stroke-linecap="round" stroke-linejoin="round"/>
</svg>
