<svg width="64" height="67" viewBox="0 0 64 67" fill="none" xmlns="http://www.w3.org/2000/svg">
<path d="M5.53637 15.8358V3.87759L17.4166 9.85846L5.53637 15.8358ZM50.0941 15.8358V3.87759L61.9743 9.85846L50.0941 15.8358ZM29.3003 12.8471V0.888916L41.1805 6.86979L29.3003 12.8471ZM26.734 66.3111C22.692 66.1486 19.0362 65.8036 15.7665 65.2761C12.4969 64.7485 9.69069 64.0926 7.34789 63.3083C5.00508 62.5241 3.19473 61.6397 1.91684 60.6553C0.638947 59.6708 0 58.6346 0 57.5465V28.4723C0 27.2264 0.796928 26.0724 2.39078 25.0102C3.98698 23.9504 6.20691 23.0249 9.05057 22.2335C11.8942 21.4422 15.2727 20.8122 19.186 20.3435C23.0992 19.8749 27.3706 19.6394 32 19.637C36.6294 19.6346 40.9008 19.8702 44.814 20.3435C48.7273 20.8169 52.1058 21.4469 54.9494 22.2335C57.7931 23.0202 60.013 23.9457 61.6092 25.0102C63.2054 26.0748 64.0023 27.2288 64 28.4723V57.5465C64 58.6298 63.361 59.6661 62.0832 60.6553C60.8053 61.6421 58.9949 62.5264 56.6521 63.3083C54.3116 64.0926 51.5054 64.7485 48.2335 65.2761C44.9615 65.8036 41.3057 66.1486 37.266 66.3111V52.251H26.734V66.3111ZM32 33.7714C37.8114 33.7714 43.2518 33.3086 48.3212 32.383C53.3907 31.4574 57.1775 30.2351 59.6818 28.7161C58.9165 27.4702 56.1197 26.2349 51.2913 25.0102C46.4629 23.7856 40.0325 23.1732 32 23.1732C23.9675 23.1732 17.5383 23.7856 12.7122 25.0102C7.88619 26.2349 5.08934 27.4714 4.32167 28.7196C6.82362 30.2339 10.3507 31.4551 14.9029 32.383C19.4551 33.3109 25.1541 33.7737 32 33.7714ZM23.2233 62.5205V48.7183H40.7767V62.5205C46.3119 62.0966 50.7635 61.3595 54.1314 60.3091C57.497 59.261 59.6163 58.2248 60.4893 57.2003V32.2488C56.6416 34.0434 52.3574 35.334 47.6366 36.1206C42.9159 36.9072 37.7037 37.3017 32 37.3041C26.2963 37.3064 21.0841 36.9119 16.3634 36.1206C11.6426 35.3293 7.35842 34.0387 3.5107 32.2488V57.2038C4.38369 58.2259 6.3684 59.2622 9.46484 60.3126C12.5613 61.363 17.1474 62.099 23.2233 62.5205Z" fill="white"/>
</svg>
